<svg width="48" height="48" viewBox="0 0 48 48" xmlns="http://www.w3.org/2000/svg">
  <!-- Factory building background -->
  <path d="M6 12 C6 8.686 8.686 6 12 6 L36 6 C39.314 6 42 8.686 42 12 L42 30 C42 33.314 39.314 36 36 36 L13.5 36 L6 43.5 V36 H12 C15.314 36 18 33.314 18 30 C18 26.686 15.314 24 12 24 C8.686 24 6 26.686 6 30 L6 12 Z" fill="#FF9800"/>
  
  <!-- Factory building silhouette -->
  <rect x="12" y="18" width="24" height="12" fill="white"/>
  <rect x="12" y="18" width="6" height="12" fill="#FF9800"/>
  <rect x="18" y="18" width="6" height="12" fill="#FF9800"/>
  <rect x="24" y="18" width="6" height="12" fill="#FF9800"/>
  <rect x="30" y="18" width="6" height="12" fill="#FF9800"/>
  
  <!-- Smoke stacks -->
  <rect x="15" y="12" width="4" height="6" fill="#757575"/>
  <rect x="29" y="12" width="4" height="6" fill="#757575"/>
  
  <!-- Production line indicator -->
  <circle cx="24" cy="24" r="3" fill="#FF5722"/>
</svg>