<svg width="48" height="48" viewBox="0 0 48 48" xmlns="http://www.w3.org/2000/svg">
  <!-- Person background -->
  <path d="M6 12 C6 8.686 8.686 6 12 6 L36 6 C39.314 6 42 8.686 42 12 L42 30 C42 33.314 39.314 36 36 36 L13.5 36 L6 43.5 V36 H12 C15.314 36 18 33.314 18 30 C18 26.686 15.314 24 12 24 C8.686 24 6 26.686 6 30 L6 12 Z" fill="#9C27B0"/>
  
  <!-- Head -->
  <circle cx="24" cy="16" r="6" fill="white"/>
  
  <!-- Body -->
  <path d="M18 28 L30 28" stroke="white" stroke-width="4" fill="none" stroke-linecap="round"/>
  <path d="M15 34 L33 34" stroke="white" stroke-width="4" fill="none" stroke-linecap="round"/>
  <path d="M12 40 L36 40" stroke="white" stroke-width="4" fill="none" stroke-linecap="round"/>
</svg>